<svg width="16" height="16" viewBox="0 0 16 16" fill="none" xmlns="http://www.w3.org/2000/svg">
<path fill-rule="evenodd" clip-rule="evenodd" d="M5.05587 3.33334C5.52037 2.16202 6.66317 1.33334 8.00052 1.33334C9.33792 1.33334 10.4807 2.16202 10.9452 3.33334H14.1666C14.4427 3.33334 14.6666 3.5572 14.6666 3.83334C14.6666 4.10948 14.4427 4.33334 14.1666 4.33334H13.3021L12.7461 12.9514C12.6838 13.9161 11.8832 14.6667 10.9165 14.6667H5.08334C4.11664 14.6667 3.31605 13.9161 3.25381 12.9514L2.69781 4.33334H1.83325C1.55711 4.33334 1.33325 4.10948 1.33325 3.83334C1.33325 3.5572 1.55711 3.33334 1.83325 3.33334H5.05587ZM6.17432 3.33334C6.55948 2.73184 7.23385 2.33334 8.00052 2.33334C8.76725 2.33334 9.44158 2.73184 9.82679 3.33334H6.17432Z" fill="#EF4444"/>
</svg>
