<svg width="20" height="20" viewBox="0 0 20 20" fill="none" xmlns="http://www.w3.org/2000/svg">
<path d="M6.25 4.79168C6.25 3.98626 6.90292 3.33334 7.70833 3.33334C8.51375 3.33334 9.16667 3.98626 9.16667 4.79168C9.16667 5.59709 8.51375 6.25001 7.70833 6.25001C6.90292 6.25001 6.25 5.59709 6.25 4.79168Z" fill="#64748B"/>
<path d="M10.8333 4.79168C10.8333 3.98626 11.4862 3.33334 12.2916 3.33334C13.097 3.33334 13.7499 3.98626 13.7499 4.79168C13.7499 5.59709 13.097 6.25001 12.2916 6.25001C11.4862 6.25001 10.8333 5.59709 10.8333 4.79168Z" fill="#64748B"/>
<path d="M6.25 15.2083C6.25 14.4029 6.90292 13.75 7.70833 13.75C8.51375 13.75 9.16667 14.4029 9.16667 15.2083C9.16667 16.0138 8.51375 16.6667 7.70833 16.6667C6.90292 16.6667 6.25 16.0138 6.25 15.2083Z" fill="#64748B"/>
<path d="M10.8333 15.2083C10.8333 14.4029 11.4862 13.75 12.2916 13.75C13.097 13.75 13.7499 14.4029 13.7499 15.2083C13.7499 16.0138 13.097 16.6667 12.2916 16.6667C11.4862 16.6667 10.8333 16.0138 10.8333 15.2083Z" fill="#64748B"/>
<path d="M6.25 9.91668C6.25 9.11126 6.90292 8.45834 7.70833 8.45834C8.51375 8.45834 9.16667 9.11126 9.16667 9.91668V10C9.16667 10.8054 8.51375 11.4583 7.70833 11.4583C6.90292 11.4583 6.25 10.8054 6.25 10V9.91668Z" fill="#64748B"/>
<path d="M10.8333 9.91668C10.8333 9.11126 11.4862 8.45834 12.2916 8.45834C13.097 8.45834 13.7499 9.11126 13.7499 9.91668V10C13.7499 10.8054 13.097 11.4583 12.2916 11.4583C11.4862 11.4583 10.8333 10.8054 10.8333 10V9.91668Z" fill="#64748B"/>
</svg>
