<svg width="20" height="20" viewBox="0 0 20 20" fill="none" xmlns="http://www.w3.org/2000/svg">
<path d="M7.44144 2.5C8.20766 2.5 8.92316 2.88294 9.34825 3.52047L9.65425 3.97953C10.0792 4.61706 10.7948 5 11.561 5H16.0417C17.3074 5 18.3334 6.02602 18.3334 7.29167V10.4398C17.4488 9.64808 16.2807 9.16667 15.0001 9.16667C12.2387 9.16667 10.0001 11.4053 10.0001 14.1667C10.0001 15.0774 10.2436 15.9313 10.669 16.6667H3.95841C2.69276 16.6667 1.66675 15.6407 1.66675 14.375V4.79167C1.66675 3.52602 2.69276 2.5 3.95841 2.5H7.44144Z" fill="#475569"/>
<path fill-rule="evenodd" clip-rule="evenodd" d="M15.0001 10.8333C15.3452 10.8333 15.6251 11.1131 15.6251 11.4583V13.5416H17.7084C18.0536 13.5416 18.3334 13.8215 18.3334 14.1666C18.3334 14.5118 18.0536 14.7916 17.7084 14.7916H15.6251V16.875C15.6251 17.2201 15.3452 17.5 15.0001 17.5C14.6549 17.5 14.3751 17.2201 14.3751 16.875V14.7916H12.2917C11.9466 14.7916 11.6667 14.5118 11.6667 14.1666C11.6667 13.8215 11.9466 13.5416 12.2917 13.5416H14.3751V11.4583C14.3751 11.1131 14.6549 10.8333 15.0001 10.8333Z" fill="#475569"/>
</svg>
