<svg width="16" height="16" viewBox="0 0 16 16" fill="none" xmlns="http://www.w3.org/2000/svg">
<path d="M2.67365 8.21419L4.87623 10.4167L2.14645 13.1465C1.95118 13.3418 1.95118 13.6584 2.14645 13.8536C2.34171 14.0489 2.65829 14.0489 2.85355 13.8536L5.58333 11.1239L7.78593 13.3264C8.84773 14.3883 10.6659 13.7931 10.8943 12.3088L11.3873 9.10446C11.4291 8.83259 11.6023 8.59892 11.8503 8.47986L13.6866 7.59846C14.826 7.05152 15.0833 5.54294 14.1897 4.64928L11.3508 1.81042C10.4571 0.916758 8.94853 1.17408 8.4016 2.31344L7.5202 4.14977C7.4012 4.39772 7.16747 4.57098 6.89567 4.6128L3.69124 5.10579C2.20702 5.33413 1.6118 7.15232 2.67365 8.21419Z" fill="#64748B"/>
</svg>
