<svg width="20" height="20" viewBox="0 0 20 20" fill="none" xmlns="http://www.w3.org/2000/svg">
<path fill-rule="evenodd" clip-rule="evenodd" d="M3.33341 3.125C3.33341 2.77983 3.61324 2.5 3.95841 2.5H16.0417C16.3869 2.5 16.6667 2.77983 16.6667 3.125C16.6667 3.47017 16.3869 3.75 16.0417 3.75H3.95841C3.61324 3.75 3.33341 3.47017 3.33341 3.125ZM1.66675 6.875C1.66675 5.60935 2.69276 4.58333 3.95841 4.58333H16.0417C17.3074 4.58333 18.3334 5.60935 18.3334 6.875V15.2083C18.3334 16.474 17.3074 17.5 16.0417 17.5H3.95841C2.69276 17.5 1.66675 16.474 1.66675 15.2083V6.875ZM8.68233 8.39758C8.89591 8.29244 9.15075 8.31777 9.3395 8.46292L12.0478 10.5463C12.2016 10.6646 12.2917 10.8476 12.2917 11.0417C12.2917 11.2358 12.2016 11.4187 12.0478 11.5371L9.3395 13.6204C9.15075 13.7656 8.89591 13.7909 8.68233 13.6857C8.46866 13.5805 8.33341 13.3631 8.33341 13.125V8.95833C8.33341 8.72025 8.46866 8.50283 8.68233 8.39758Z" fill="#475569"/>
</svg>
